<svg width="120" height="32" viewBox="0 0 120 32" fill="none" xmlns="http://www.w3.org/2000/svg">
<path d="M4.256 2.56C5.344 1.856 6.50667 1.312 7.744 0.927999C9.00267 0.522666 10.2293 0.32 11.424 0.32C11.5733 0.32 11.7333 0.330666 11.904 0.351999C12.096 0.351999 12.3627 0.362666 12.704 0.383999L7.776 23.36C8.26667 23.4667 8.78933 23.648 9.344 23.904C9.92 24.1387 10.784 24.5653 11.936 25.184C13.664 26.1227 14.9867 26.7413 15.904 27.04C16.8213 27.3387 17.696 27.488 18.528 27.488C19.0187 27.488 19.4773 27.4453 19.904 27.36C20.352 27.2747 20.7893 27.1467 21.216 26.976C21.0453 28.512 20.6613 29.728 20.064 30.624C19.4667 31.5413 18.7413 32 17.888 32C17.12 32 16.2987 31.7867 15.424 31.36C14.5707 30.9547 13.2693 30.0587 11.52 28.672C9.51467 27.0507 7.95733 25.984 6.848 25.472C5.73867 24.9813 4.66133 24.736 3.616 24.736C3.424 24.736 3.27467 24.736 3.168 24.736C3.06133 24.736 2.96533 24.7467 2.88 24.768L7.648 2.592C6.19733 3.18933 5.088 4.08533 4.32 5.28C3.552 6.47467 3.168 7.904 3.168 9.568C3.168 9.97333 3.18933 10.3253 3.232 10.624C3.296 10.9227 3.392 11.2107 3.52 11.488C3.56267 11.5733 3.584 11.6373 3.584 11.68C3.60533 11.7013 3.616 11.7227 3.616 11.744C2.42133 11.744 1.54667 11.4987 0.992 11.008C0.458667 10.496 0.192 9.70667 0.192 8.64C0.192 7.57333 0.544 6.50667 1.248 5.44C1.97333 4.37333 2.976 3.41333 4.256 2.56ZM17.469 21.088C18.0237 21.088 18.5143 20.8533 18.941 20.384C19.389 19.8933 19.7517 19.1893 20.029 18.272L22.205 8H26.813L24.509 18.88C24.4663 19.072 24.4343 19.2533 24.413 19.424C24.3917 19.5733 24.381 19.7333 24.381 19.904C24.381 20.3307 24.477 20.64 24.669 20.832C24.8823 21.0027 25.2237 21.088 25.693 21.088C26.2477 21.088 26.749 20.8427 27.197 20.352C27.645 19.8613 28.0077 19.168 28.285 18.272H29.629C28.9463 20.2347 28.061 21.7173 26.973 22.72C25.885 23.7013 24.6263 24.192 23.197 24.192C22.2797 24.192 21.5437 23.936 20.989 23.424C20.4343 22.8907 20.1143 22.1333 20.029 21.152C19.4103 22.176 18.7063 22.944 17.917 23.456C17.149 23.9467 16.2743 24.192 15.293 24.192C14.2263 24.192 13.3837 23.8613 12.765 23.2C12.1677 22.5173 11.869 21.568 11.869 20.352C11.869 20.0747 11.8903 19.7653 11.933 19.424C11.9757 19.0613 12.0397 18.6773 12.125 18.272L14.301 8H18.909L16.605 18.88C16.5623 19.0507 16.5303 19.2107 16.509 19.36C16.509 19.488 16.509 19.6267 16.509 19.776C16.509 20.2027 16.5837 20.5333 16.733 20.768C16.9037 20.9813 17.149 21.088 17.469 21.088ZM38.048 18.656C38.048 18.912 38.0373 19.136 38.016 19.328C37.9947 19.52 37.9627 19.7013 37.92 19.872C38.3467 19.616 38.7627 19.3493 39.168 19.072C39.5733 18.7947 39.9253 18.528 40.224 18.272H41.568C40.9067 19.04 40.1707 19.7547 39.36 20.416C38.5707 21.056 37.6747 21.6747 36.672 22.272C36.096 22.8907 35.36 23.3707 34.464 23.712C33.568 24.032 32.6293 24.192 31.648 24.192C30.2187 24.192 29.0773 23.808 28.224 23.04C27.392 22.2507 26.976 21.2693 26.976 20.096C26.976 19.4347 27.136 18.8373 27.456 18.304C27.776 17.7493 28.1813 17.3547 28.672 17.12C29.3973 15.8187 30.0693 14.432 30.688 12.96C31.328 11.4667 31.968 9.696 32.608 7.648L37.344 7.008C37.408 8.608 37.4827 10.0693 37.568 11.392C37.6533 12.7147 37.76 14.1547 37.888 15.712C37.952 16.608 37.9947 17.2373 38.016 17.6C38.0373 17.9627 38.048 18.3147 38.048 18.656ZM32.8 11.104C32.5227 11.9787 32.1813 12.896 31.776 13.856C31.392 14.7947 30.8693 15.8933 30.208 17.152C30.4427 17.2587 30.624 17.408 30.752 17.6C30.88 17.792 30.944 18.016 30.944 18.272C30.944 18.6773 30.8053 19.04 30.528 19.36C30.2507 19.68 29.92 19.84 29.536 19.84C29.3227 19.84 29.1413 19.808 28.992 19.744C28.8427 19.6587 28.736 19.552 28.672 19.424C28.672 20.2133 28.8213 20.7893 29.12 21.152C29.44 21.4933 29.9413 21.664 30.624 21.664C31.4987 21.664 32.1813 21.408 32.672 20.896C33.1627 20.384 33.408 19.648 33.408 18.688C33.408 18.3893 33.3973 18.0907 33.376 17.792C33.3547 17.472 33.312 16.9493 33.248 16.224C33.1413 15.2213 33.056 14.336 32.992 13.568C32.928 12.8 32.864 11.9787 32.8 11.104ZM41.3388 8H42.3948L43.3548 3.584L48.0908 2.944L47.0028 8H48.9228L48.6667 9.28H46.7468L44.6988 18.88C44.6561 19.072 44.6241 19.2533 44.6028 19.424C44.5814 19.5733 44.5708 19.7333 44.5708 19.904C44.5708 20.3307 44.6668 20.64 44.8588 20.832C45.0721 21.0027 45.4134 21.088 45.8828 21.088C46.4801 21.088 47.0454 20.832 47.5788 20.32C48.1121 19.7867 48.5068 19.104 48.7628 18.272H50.1068C49.4241 20.2133 48.5068 21.6853 47.3548 22.688C46.2028 23.6907 44.8801 24.192 43.3868 24.192C42.3201 24.192 41.4774 23.8613 40.8588 23.2C40.2614 22.5173 39.9627 21.568 39.9627 20.352C39.9627 20.0747 39.9841 19.7653 40.0267 19.424C40.0694 19.0613 40.1334 18.6773 40.2188 18.272L42.1388 9.28H41.0828L41.3388 8ZM52.142 24H47.534L50.926 8H55.534L55.118 9.984C56.0567 9.19467 56.7927 8.672 57.326 8.416C57.8807 8.13867 58.4353 8 58.99 8C59.6513 8 60.1847 8.23467 60.59 8.704C60.9953 9.152 61.198 9.71733 61.198 10.4C61.198 11.0613 60.9847 11.616 60.558 12.064C60.1313 12.512 59.5767 12.736 58.894 12.736C58.5313 12.736 58.2433 12.6507 58.03 12.48C57.838 12.3093 57.6993 11.9573 57.614 11.424C57.55 11.0827 57.4753 10.8693 57.39 10.784C57.3047 10.6773 57.1873 10.624 57.038 10.624C56.6753 10.624 56.334 10.6987 56.014 10.848C55.694 10.9973 55.2567 11.328 54.702 11.84L52.142 24ZM72.4628 10.784C72.4628 12.5547 71.7374 14.1013 70.2868 15.424C68.8361 16.7253 67.1081 17.4293 65.1028 17.536C65.0814 17.8987 65.0601 18.176 65.0388 18.368C65.0388 18.5387 65.0388 18.688 65.0388 18.816C65.0388 19.7973 65.1988 20.4907 65.5188 20.896C65.8601 21.3013 66.4681 21.504 67.3428 21.504C68.3454 21.504 69.2628 21.28 70.0948 20.832C70.9481 20.3627 71.9188 19.5093 73.0068 18.272H74.0948C72.8574 20.2773 71.5134 21.7707 70.0628 22.752C68.6121 23.712 67.0228 24.192 65.2948 24.192C63.6521 24.192 62.4041 23.7653 61.5508 22.912C60.7188 22.0587 60.3027 20.7893 60.3027 19.104C60.3027 17.888 60.4947 16.5973 60.8788 15.232C61.2628 13.8667 61.7748 12.6507 62.4148 11.584C63.2041 10.304 64.1428 9.344 65.2308 8.704C66.3401 8.04267 67.5774 7.712 68.9427 7.712C70.1161 7.712 70.9908 7.968 71.5668 8.48C72.1641 8.97067 72.4628 9.73867 72.4628 10.784ZM69.1988 9.408C68.4734 9.408 67.7374 10.0587 66.9908 11.36C66.2654 12.64 65.7214 14.1867 65.3588 16C66.5961 15.9147 67.6734 15.3493 68.5908 14.304C69.5294 13.2373 69.9988 12.0427 69.9988 10.72C69.9988 10.272 69.9348 9.94133 69.8068 9.728C69.6788 9.51467 69.4761 9.408 69.1988 9.408ZM77.256 2.56C78.344 1.856 79.5067 1.312 80.744 0.927999C82.0027 0.522666 83.2293 0.32 84.424 0.32C84.5733 0.32 84.7333 0.330666 84.904 0.351999C85.096 0.351999 85.3627 0.362666 85.704 0.383999L80.776 23.36C81.2667 23.4667 81.7893 23.648 82.344 23.904C82.92 24.1387 83.784 24.5653 84.936 25.184C86.664 26.1227 87.9867 26.7413 88.904 27.04C89.8213 27.3387 90.696 27.488 91.528 27.488C92.0187 27.488 92.4773 27.4453 92.904 27.36C93.352 27.2747 93.7893 27.1467 94.216 26.976C94.0453 28.512 93.6613 29.728 93.064 30.624C92.4667 31.5413 91.7413 32 90.888 32C90.12 32 89.2987 31.7867 88.424 31.36C87.5707 30.9547 86.2693 30.0587 84.52 28.672C82.5147 27.0507 80.9573 25.984 79.848 25.472C78.7387 24.9813 77.6613 24.736 76.616 24.736C76.424 24.736 76.2747 24.736 76.168 24.736C76.0613 24.736 75.9653 24.7467 75.88 24.768L80.648 2.592C79.1973 3.18933 78.088 4.08533 77.32 5.28C76.552 6.47467 76.168 7.904 76.168 9.568C76.168 9.97333 76.1893 10.3253 76.232 10.624C76.296 10.9227 76.392 11.2107 76.52 11.488C76.5627 11.5733 76.584 11.6373 76.584 11.68C76.6053 11.7013 76.616 11.7227 76.616 11.744C75.4213 11.744 74.5467 11.4987 73.992 11.008C73.4587 10.496 73.192 9.70667 73.192 8.64C73.192 7.57333 73.544 6.50667 74.248 5.44C74.9733 4.37333 75.976 3.41333 77.256 2.56ZM90.469 21.088C91.0237 21.088 91.5143 20.8533 91.941 20.384C92.389 19.8933 92.7517 19.1893 93.029 18.272L95.205 8H99.813L97.509 18.88C97.4663 19.072 97.4343 19.2533 97.413 19.424C97.3917 19.5733 97.381 19.7333 97.381 19.904C97.381 20.3307 97.477 20.64 97.669 20.832C97.8823 21.0027 98.2237 21.088 98.693 21.088C99.2477 21.088 99.749 20.8427 100.197 20.352C100.645 19.8613 101.008 19.168 101.285 18.272H102.629C101.946 20.2347 101.061 21.7173 99.973 22.72C98.885 23.7013 97.6263 24.192 96.197 24.192C95.2797 24.192 94.5437 23.936 93.989 23.424C93.4343 22.8907 93.1143 22.1333 93.029 21.152C92.4103 22.176 91.7063 22.944 90.917 23.456C90.149 23.9467 89.2743 24.192 88.293 24.192C87.2263 24.192 86.3837 23.8613 85.765 23.2C85.1677 22.5173 84.869 21.568 84.869 20.352C84.869 20.0747 84.8903 19.7653 84.933 19.424C84.9757 19.0613 85.0397 18.6773 85.125 18.272L87.301 8H91.909L89.605 18.88C89.5623 19.0507 89.5303 19.2107 89.509 19.36C89.509 19.488 89.509 19.6267 89.509 19.776C89.509 20.2027 89.5837 20.5333 89.733 20.768C89.9037 20.9813 90.149 21.088 90.469 21.088ZM115.489 6.176C116.023 6.176 116.449 6.464 116.769 7.04C117.111 7.59467 117.281 8.27733 117.281 9.088C117.281 9.87733 117.025 10.7093 116.513 11.584C116.001 12.4373 114.775 13.9307 112.833 16.064L113.121 18.304C113.249 19.2853 113.463 20 113.761 20.448C114.06 20.8747 114.508 21.088 115.105 21.088C115.703 21.088 116.268 20.832 116.801 20.32C117.335 19.7867 117.729 19.104 117.985 18.272H119.329C118.668 20.192 117.772 21.664 116.641 22.688C115.511 23.6907 114.231 24.192 112.801 24.192C111.799 24.192 110.967 23.7333 110.305 22.816C109.665 21.8773 109.196 20.48 108.897 18.624L104.481 24H102.177L108.641 16.704L108.129 13.12C107.98 12.1387 107.82 11.456 107.649 11.072C107.479 10.6667 107.233 10.464 106.913 10.464C106.167 10.464 105.388 11.1893 104.577 12.64C103.767 14.0693 103.116 15.9467 102.625 18.272H101.281C101.964 14.9867 102.956 12.4267 104.257 10.592C105.58 8.75733 107.105 7.84 108.833 7.84C109.815 7.84 110.593 8.17067 111.169 8.832C111.767 9.472 112.14 10.4107 112.289 11.648L112.577 14.08C113.537 12.992 114.231 12.096 114.657 11.392C115.105 10.6667 115.34 10.0267 115.361 9.472C115.212 9.49333 115.095 9.51467 115.009 9.536C114.945 9.536 114.881 9.536 114.817 9.536C114.327 9.536 113.953 9.38667 113.697 9.088C113.441 8.768 113.313 8.32 113.313 7.744C113.313 7.25333 113.505 6.86933 113.889 6.592C114.295 6.31467 114.828 6.176 115.489 6.176Z" fill="black"/>
</svg>
